<svg width="100" height="100" viewBox="0 0 100 100" fill="none" xmlns="http://www.w3.org/2000/svg">
<g clip-path="url(#clip0_50_133)">
<rect width="100" height="100" rx="30" fill="white"/>
<path d="M29.0859 84V19.752H69.6914V31.002H42.709V44.4053H48.0703C54.1055 44.4053 59.0566 45.2402 62.9238 46.9102C66.8203 48.5801 69.6914 50.8945 71.5371 53.8535C73.4121 56.7832 74.3496 60.1377 74.3496 63.917C74.3496 70.2744 72.2256 75.2109 67.9775 78.7266C63.7588 82.2422 57.0352 84 47.8066 84H29.0859ZM42.709 72.8379H47.2793C51.4102 72.8379 54.6621 72.1787 57.0352 70.8604C59.4082 69.5127 60.5947 67.1982 60.5947 63.917C60.5947 61.6318 60.0088 59.8887 58.8369 58.6875C57.6943 57.4863 56.0391 56.666 53.8711 56.2266C51.7324 55.7871 49.1689 55.5674 46.1807 55.5674H42.709V72.8379Z" fill="black"/>
</g>
<defs>
<clipPath id="clip0_50_133">
<rect width="100" height="100" fill="white"/>
</clipPath>
</defs>
</svg>
