<svg width="0" height="0" class="hidden">
  <symbol xmlns="http://www.w3.org/2000/svg" viewBox="0 0 512 512" id="arrow-undo-outline">
    <title>Arrow Undo</title>
    <path d="M240 424v-96c116.4 0 159.39 33.76 208 96 0-119.23-39.57-240-208-240V88L64 256z" fill="none" stroke="currentColor" stroke-linejoin="round" stroke-width="32"></path>
  </symbol>
  <symbol xmlns="http://www.w3.org/2000/svg" viewBox="0 0 512 512" id="calendar-outline">
    <title>Calendar</title>
    <rect fill="none" stroke="currentColor" stroke-linejoin="round" stroke-width="32" x="48" y="80" width="416" height="384" rx="48"></rect>
    <circle cx="296" cy="232" r="24"></circle>
    <circle cx="376" cy="232" r="24"></circle>
    <circle cx="296" cy="312" r="24"></circle>
    <circle cx="376" cy="312" r="24"></circle>
    <circle cx="136" cy="312" r="24"></circle>
    <circle cx="216" cy="312" r="24"></circle>
    <circle cx="136" cy="392" r="24"></circle>
    <circle cx="216" cy="392" r="24"></circle>
    <circle cx="296" cy="392" r="24"></circle>
    <path fill="none" stroke="currentColor" stroke-linejoin="round" stroke-width="32" stroke-linecap="round" d="M128 48v32M384 48v32"></path>
    <path fill="none" stroke="currentColor" stroke-linejoin="round" stroke-width="32" d="M464 160H48"></path>
  </symbol>
  <symbol xmlns="http://www.w3.org/2000/svg" viewBox="0 0 512 512" id="chatbubble-outline">
    <title>Chatbubble</title>
    <path d="M87.49 380c1.19-4.38-1.44-10.47-3.95-14.86a44.86 44.86 0 00-2.54-3.8 199.81 199.81 0 01-33-110C47.65 139.09 140.73 48 255.83 48 356.21 48 440 117.54 459.58 209.85a199 199 0 014.42 41.64c0 112.41-89.49 204.93-204.59 204.93-18.3 0-43-4.6-56.47-8.37s-26.92-8.77-30.39-10.11a31.09 31.09 0 00-11.12-2.07 30.71 30.71 0 00-12.09 2.43l-67.83 24.48a16 16 0 01-4.67 1.22 9.6 9.6 0 01-9.57-9.74 15.85 15.85 0 01.6-3.29z" fill="none" stroke="currentColor" stroke-linecap="round" stroke-miterlimit="10" stroke-width="32"></path>
  </symbol>
  <symbol xmlns="http://www.w3.org/2000/svg" viewBox="0 0 512 512" id="chevron-back-outline">
    <title>Chevron Back</title>
    <path fill="none" stroke="currentColor" stroke-linecap="round" stroke-linejoin="round" stroke-width="32" d="M328 112L184 256l144 144"></path>
  </symbol>
  <symbol xmlns="http://www.w3.org/2000/svg" viewBox="0 0 512 512" id="log-in-outline">
    <title>Log In</title>
    <path d="M192 176v-40a40 40 0 0140-40h160a40 40 0 0140 40v240a40 40 0 01-40 40H240c-22.09 0-48-17.91-48-40v-40" fill="none" stroke="currentColor" stroke-linecap="round" stroke-linejoin="round" stroke-width="32"></path>
    <path fill="none" stroke="currentColor" stroke-linecap="round" stroke-linejoin="round" stroke-width="32" d="M288 336l80-80-80-80M80 256h272"></path>
  </symbol>
  <symbol xmlns="http://www.w3.org/2000/svg" viewBox="0 0 512 512" id="log-out-outline">
    <title>Log Out</title>
    <path d="M304 336v40a40 40 0 01-40 40H104a40 40 0 01-40-40V136a40 40 0 0140-40h152c22.09 0 48 17.91 48 40v40M368 336l80-80-80-80M176 256h256" fill="none" stroke="currentColor" stroke-linecap="round" stroke-linejoin="round" stroke-width="32"></path>
  </symbol>
  <symbol xmlns="http://www.w3.org/2000/svg" viewBox="0 0 512 512" id="newspaper-outline">
    <title>Newspaper</title>
    <path d="M368 415.86V72a24.07 24.07 0 00-24-24H72a24.07 24.07 0 00-24 24v352a40.12 40.12 0 0040 40h328" fill="none" stroke="currentColor" stroke-linejoin="round" stroke-width="32"></path>
    <path d="M416 464h0a48 48 0 01-48-48V128h72a24 24 0 0124 24v264a48 48 0 01-48 48z" fill="none" stroke="currentColor" stroke-linejoin="round" stroke-width="32"></path>
    <path fill="none" stroke="currentColor" stroke-linecap="round" stroke-linejoin="round" stroke-width="32" d="M240 128h64M240 192h64M112 256h192M112 320h192M112 384h192"></path>
    <path d="M176 208h-64a16 16 0 01-16-16v-64a16 16 0 0116-16h64a16 16 0 0116 16v64a16 16 0 01-16 16z"></path>
  </symbol>
  <symbol xmlns="http://www.w3.org/2000/svg" viewBox="0 0 512 512" id="person-circle-outline">
    <title>Person Circle</title>
    <path d="M258.9 48C141.92 46.42 46.42 141.92 48 258.9c1.56 112.19 92.91 203.54 205.1 205.1 117 1.6 212.48-93.9 210.88-210.88C462.44 140.91 371.09 49.56 258.9 48zm126.42 327.25a4 4 0 01-6.14-.32 124.27 124.27 0 00-32.35-29.59C321.37 329 289.11 320 256 320s-65.37 9-90.83 25.34a124.24 124.24 0 00-32.35 29.58 4 4 0 01-6.14.32A175.32 175.32 0 0180 259c-1.63-97.31 78.22-178.76 175.57-179S432 158.81 432 256a175.32 175.32 0 01-46.68 119.25z"></path>
    <path d="M256 144c-19.72 0-37.55 7.39-50.22 20.82s-19 32-17.57 51.93C191.11 256 221.52 288 256 288s64.83-32 67.79-71.24c1.48-19.74-4.8-38.14-17.68-51.82C293.39 151.44 275.59 144 256 144z"></path>
  </symbol>
  <symbol xmlns="http://www.w3.org/2000/svg" viewBox="0 0 512 512" id="search-outline">
    <title>Search</title>
    <path d="M221.09 64a157.09 157.09 0 10157.09 157.09A157.1 157.1 0 00221.09 64z" fill="none" stroke="currentColor" stroke-miterlimit="10" stroke-width="32"></path>
    <path fill="none" stroke="currentColor" stroke-linecap="round" stroke-miterlimit="10" stroke-width="32" d="M338.29 338.29L448 448"></path>
  </symbol>
  <symbol xmlns="http://www.w3.org/2000/svg" viewBox="0 0 512 512" id="storefront-outline">
    <title>Storefront</title>
    <path fill="none" stroke="currentColor" stroke-linecap="round" stroke-linejoin="round" stroke-width="32" d="M448 448V240M64 240v208M382.47 48H129.53c-21.79 0-41.47 12-49.93 30.46L36.3 173c-14.58 31.81 9.63 67.85 47.19 69h2c31.4 0 56.85-25.18 56.85-52.23 0 27 25.46 52.23 56.86 52.23s56.8-23.38 56.8-52.23c0 27 25.45 52.23 56.85 52.23s56.86-23.38 56.86-52.23c0 28.85 25.45 52.23 56.85 52.23h1.95c37.56-1.17 61.77-37.21 47.19-69l-43.3-94.54C423.94 60 404.26 48 382.47 48zM32 464h448M136 288h80a24 24 0 0124 24v88h0-128 0v-88a24 24 0 0124-24zM288 464V312a24 24 0 0124-24h64a24 24 0 0124 24v152"></path>
  </symbol>
</svg>